<?xml version="1.0" encoding="utf-8"?>
<!-- Generator: Adobe Illustrator 28.0.0, SVG Export Plug-In . SVG Version: 6.00 Build 0)  -->
<svg version="1.1" xmlns="http://www.w3.org/2000/svg" xmlns:xlink="http://www.w3.org/1999/xlink" x="0px" y="0px"
	 viewBox="0 0 113 113" style="enable-background:new 0 0 113 113;" xml:space="preserve">
<style type="text/css">
	.st0{display:none;}
	.st1{display:inline;fill:none;stroke:#000000;stroke-width:30;stroke-miterlimit:10;}
	.st2{display:inline;}
	.st3{fill:#FFFFFF;}
	.st4{display:inline;fill:#FF0000;}
	.st5{fill:#137AA3;}
	.st6{fill:#F9EA38;}
	.st7{display:inline;fill:#E40035;}
	.st8{display:inline;fill:#F9EA38;}
</style>
<g id="Слой_2" class="st0">
	<line class="st1" x1="454.5" y1="345.1" x2="632.3" y2="279.9"/>
	<line class="st1" x1="608.1" y1="432.7" x2="454.5" y2="345.1"/>
	<line class="st1" x1="632.3" y1="279.9" x2="608.1" y2="432.7"/>
	<line class="st1" x1="741.1" y1="408.6" x2="632.3" y2="279.9"/>
	<line class="st1" x1="765.2" y1="255.7" x2="741.1" y2="408.6"/>
	<g class="st2">
		
			<ellipse transform="matrix(0.9571 -0.2898 0.2898 0.9571 -80.4906 146.5121)" class="st3" cx="454.5" cy="345.1" rx="103.8" ry="103.8"/>
		<path d="M454.5,258.8c47.6,0,86.3,38.7,86.3,86.3s-38.7,86.3-86.3,86.3s-86.3-38.7-86.3-86.3S406.9,258.8,454.5,258.8
			 M454.5,223.8c-67,0-121.3,54.3-121.3,121.3s54.3,121.3,121.3,121.3c67,0,121.3-54.3,121.3-121.3S521.5,223.8,454.5,223.8
			L454.5,223.8z"/>
	</g>
	<circle class="st4" cx="454.5" cy="345.1" r="63.5"/>
	<g class="st2">
		<path class="st3" d="M741.1,455.1c-25.6,0-46.5-20.9-46.5-46.5s20.9-46.5,46.5-46.5c25.6,0,46.5,20.9,46.5,46.5
			S766.7,455.1,741.1,455.1z"/>
		<path d="M741.1,372.1c20.1,0,36.5,16.4,36.5,36.5s-16.4,36.5-36.5,36.5c-20.1,0-36.5-16.4-36.5-36.5S721,372.1,741.1,372.1
			 M741.1,352.1c-31.2,0-56.5,25.3-56.5,56.5s25.3,56.5,56.5,56.5c31.2,0,56.5-25.3,56.5-56.5S772.3,352.1,741.1,352.1L741.1,352.1z
			"/>
	</g>
	<circle class="st4" cx="741.1" cy="408.6" r="24.1"/>
	<g class="st2">
		<circle class="st3" cx="632.3" cy="279.9" r="46.5"/>
		<path d="M632.3,243.4c20.1,0,36.5,16.4,36.5,36.5c0,20.1-16.4,36.5-36.5,36.5c-20.1,0-36.5-16.4-36.5-36.5
			C595.8,259.8,612.1,243.4,632.3,243.4 M632.3,223.4c-31.2,0-56.5,25.3-56.5,56.5c0,31.2,25.3,56.5,56.5,56.5
			c31.2,0,56.5-25.3,56.5-56.5C688.8,248.7,663.5,223.4,632.3,223.4L632.3,223.4z"/>
	</g>
	<circle class="st4" cx="632.3" cy="279.9" r="24.1"/>
	<g class="st2">
		<circle class="st3" cx="608.1" cy="432.7" r="25.6"/>
		<path d="M608.1,414.6c10,0,18.1,8.1,18.1,18.1c0,10-8.1,18.1-18.1,18.1s-18.1-8.1-18.1-18.1C590,422.7,598.1,414.6,608.1,414.6
			 M608.1,399.6c-18.3,0-33.1,14.8-33.1,33.1c0,18.3,14.8,33.1,33.1,33.1s33.1-14.8,33.1-33.1C641.2,414.4,626.4,399.6,608.1,399.6
			L608.1,399.6z"/>
	</g>
	<g class="st2">
		<circle class="st3" cx="765.2" cy="255.7" r="25.6"/>
		<path d="M765.2,237.7c10,0,18.1,8.1,18.1,18.1s-8.1,18.1-18.1,18.1c-10,0-18.1-8.1-18.1-18.1S755.3,237.7,765.2,237.7
			 M765.2,222.7c-18.3,0-33.1,14.8-33.1,33.1c0,18.3,14.8,33.1,33.1,33.1c18.3,0,33.1-14.8,33.1-33.1
			C798.3,237.5,783.5,222.7,765.2,222.7L765.2,222.7z"/>
	</g>
</g>
<g id="Слой_4">
	<g>
		<path class="st5" d="M56.5,20C76.6,20,93,36.4,93,56.5S76.6,93,56.5,93S20,76.6,20,56.5S36.4,20,56.5,20 M56.5,0
			C25.3,0,0,25.3,0,56.5S25.3,113,56.5,113S113,87.7,113,56.5S87.7,0,56.5,0L56.5,0z"/>
	</g>
	<circle class="st6" cx="56.5" cy="56.5" r="24.1"/>
</g>
<g id="Слой_2__x28_копия_x29_" class="st0">
	<g class="st2">
		<path class="st5" d="M236.6,352.4l11-69.9c13.3-4.3,22.9-16.8,22.9-31.5c0-18.3-14.8-33.1-33.1-33.1c-18.3,0-33.1,14.8-33.1,33.1
			c0,11,5.4,20.8,13.7,26.8l-11,69.9c-6.2,0.7-12,2.4-17.4,4.9L151,307.1c6.2-9.1,9.9-20.1,9.9-31.9c0-31.2-25.3-56.5-56.5-56.5
			S47.9,244,47.9,275.2c0,1.6,0.1,3.1,0.2,4.7l-13.6,5c-20.1-39.1-60.9-65.8-107.9-65.8c-67,0-121.3,54.3-121.3,121.3
			s54.3,121.3,121.3,121.3c39.7,0,75-19.1,97.1-48.6l23.5,13.4c0,0.5,0,1.1,0,1.6c0,18.3,14.8,33.1,33.1,33.1
			c18.3,0,33.1-14.8,33.1-33.1c0-11-5.4-20.8-13.7-26.8l11-69.9c6.2-0.7,12-2.4,17.4-4.9l38.5,45.5c-6.2,9.1-9.9,20.1-9.9,31.9
			c0,31.2,25.3,56.5,56.5,56.5s56.5-25.3,56.5-56.5C269.7,381,256.1,361.3,236.6,352.4z M7.9,369.4c-3.4,9.6-8.5,18.4-14.9,26
			c-15.8,19-39.7,31.2-66.3,31.2c-47.6,0-86.3-38.7-86.3-86.3c0-47.6,38.7-86.3,86.3-86.3c31.8,0,59.6,17.3,74.6,43
			c5,8.6,8.5,18,10.3,28.1c0.9,4.9,1.3,10,1.3,15.2C12.9,350.5,11.1,360.3,7.9,369.4z M38.6,387c6-14.3,9.3-30.1,9.3-46.6
			c0-9.4-1.1-18.6-3.1-27.4l13.6-5c5.8,8,13.6,14.5,22.7,18.6l-11,69.9c-2.8,0.9-5.5,2.2-8,3.8L38.6,387z M80.3,446.1
			c-7.1,0-13.2-4.1-16.2-10.1c-1.2-2.4-1.9-5.1-1.9-8c0-4.7,1.8-9.1,4.8-12.3c3-3.3,7.2-5.4,11.9-5.7c0.4,0,0.9,0,1.3,0
			c7.2,0,13.5,4.3,16.4,10.5v0c1.1,2.3,1.7,4.9,1.7,7.6C98.4,438,90.2,446.1,80.3,446.1z M137.3,290.9c-4.5,9.3-12.8,16.5-22.9,19.4
			c-0.1,0-0.3,0.1-0.4,0.1c-3.1,0.8-6.3,1.3-9.6,1.3c-7.4,0-14.3-2.2-20-6c-2.2-1.4-4.2-3.1-6-5c-6.5-6.6-10.4-15.6-10.4-25.5
			c0-0.9,0-1.8,0.1-2.6c1.4-18.9,17.2-33.8,36.4-33.8c20.1,0,36.5,16.4,36.5,36.5C140.9,280.8,139.6,286.1,137.3,290.9z
			 M237.4,232.9c10,0,18.1,8.1,18.1,18.1c0,4.7-1.8,9.1-4.8,12.3c-3.3,3.5-8,5.8-13.2,5.8c-7.2,0-13.5-4.3-16.4-10.4
			c-1.1-2.3-1.7-4.9-1.7-7.6C219.3,241.1,227.4,232.9,237.4,232.9z M213.2,440.3c-20.1,0-36.5-16.4-36.5-36.5
			c0-5.6,1.3-10.9,3.6-15.7c4.5-9.3,12.8-16.5,22.9-19.4c0.1,0,0.3-0.1,0.4-0.1c3.1-0.8,6.3-1.3,9.6-1.3c7.4,0,14.3,2.2,20,6
			c9.9,6.5,16.5,17.8,16.5,30.5C249.7,424,233.4,440.3,213.2,440.3z"/>
	</g>
	<path class="st7" d="M-9.8,340.3c0,6.1-0.9,12-2.5,17.6c-2.8,9.9-8,18.8-14.9,26c-11.6,12.3-28,19.9-46.2,19.9
		c-35.1,0-63.5-28.4-63.5-63.5c0-35.1,28.4-63.5,63.5-63.5c22,0,41.4,11.2,52.8,28.2c5.5,8.2,9.2,17.8,10.3,28.2
		C-10,335.5-9.8,337.9-9.8,340.3z"/>
	<path class="st7" d="M237.4,403.9c0,13.3-10.8,24.2-24.1,24.2c-13.3,0-24.2-10.8-24.2-24.2c0-1.6,0.2-3.2,0.5-4.8
		c1.4-7,5.8-12.9,11.8-16.3v0c3.3-1.9,7.1-3,11.1-3.1c0.2,0,0.5,0,0.8,0c7,0,13.4,3,17.8,7.8C235,391.8,237.4,397.5,237.4,403.9z"/>
	<path class="st8" d="M128.6,275.2c0,1.6-0.2,3.2-0.5,4.8c-1.4,7-5.8,12.9-11.8,16.2v0c-3.3,1.9-7.1,3-11.1,3.1c-0.2,0-0.5,0-0.8,0
		c-4.6,0-8.9-1.3-12.6-3.5c-1.9-1.2-3.7-2.6-5.2-4.3c-4-4.3-6.4-10-6.4-16.3c0-2.6,0.4-5.2,1.2-7.6c3.2-9.6,12.2-16.6,22.9-16.6
		C117.8,251,128.6,261.8,128.6,275.2z"/>
</g>
<g id="Слой_1" class="st0">
	
		<image style="display:inline;overflow:visible;" width="289" height="151" xlink:href="ONlogo72.png"  transform="matrix(1.6114 0 0 1.6114 346.761 -56.9396)">
	</image>
</g>
</svg>
