<?xml version="1.0" encoding="utf-8"?>
<!-- Generator: Adobe Illustrator 28.0.0, SVG Export Plug-In . SVG Version: 6.00 Build 0)  -->
<svg version="1.1" xmlns="http://www.w3.org/2000/svg" xmlns:xlink="http://www.w3.org/1999/xlink" x="0px" y="0px"
	 viewBox="0 0 465.1 243.7" style="enable-background:new 0 0 465.1 243.7;" xml:space="preserve">
<style type="text/css">
	.st0{display:none;}
	.st1{display:inline;fill:none;stroke:#000000;stroke-width:30;stroke-miterlimit:10;}
	.st2{display:inline;}
	.st3{fill:#FFFFFF;}
	.st4{display:inline;fill:#FF0000;}
	.st5{fill:#137AA3;}
	.st6{fill:#E40035;}
	.st7{fill:#F9EA38;}
</style>
<g id="Слой_2" class="st0">
	<line class="st1" x1="649.1" y1="127.1" x2="826.9" y2="61.9"/>
	<line class="st1" x1="802.7" y1="214.8" x2="649.1" y2="127.1"/>
	<line class="st1" x1="826.9" y1="61.9" x2="802.7" y2="214.8"/>
	<line class="st1" x1="935.7" y1="190.6" x2="826.9" y2="61.9"/>
	<line class="st1" x1="959.9" y1="37.8" x2="935.7" y2="190.6"/>
	<g class="st2">
		
			<ellipse transform="matrix(0.9571 -0.2898 0.2898 0.9571 -8.9853 193.5583)" class="st3" cx="649.1" cy="127.1" rx="103.8" ry="103.8"/>
		<path d="M649.1,40.8c47.6,0,86.3,38.7,86.3,86.3s-38.7,86.3-86.3,86.3s-86.3-38.7-86.3-86.3S601.5,40.8,649.1,40.8 M649.1,5.8
			c-67,0-121.3,54.3-121.3,121.3s54.3,121.3,121.3,121.3c67,0,121.3-54.3,121.3-121.3S716.1,5.8,649.1,5.8L649.1,5.8z"/>
	</g>
	<circle class="st4" cx="649.1" cy="127.1" r="63.5"/>
	<g class="st2">
		<path class="st3" d="M935.7,237.1c-25.6,0-46.5-20.9-46.5-46.5s20.9-46.5,46.5-46.5c25.6,0,46.5,20.9,46.5,46.5
			S961.4,237.1,935.7,237.1z"/>
		<path d="M935.7,154.1c20.1,0,36.5,16.4,36.5,36.5s-16.4,36.5-36.5,36.5c-20.1,0-36.5-16.4-36.5-36.5S915.6,154.1,935.7,154.1
			 M935.7,134.1c-31.2,0-56.5,25.3-56.5,56.5s25.3,56.5,56.5,56.5c31.2,0,56.5-25.3,56.5-56.5S966.9,134.1,935.7,134.1L935.7,134.1z
			"/>
	</g>
	<circle class="st4" cx="935.7" cy="190.6" r="24.1"/>
	<g class="st2">
		<circle class="st3" cx="826.9" cy="61.9" r="46.5"/>
		<path d="M826.9,25.5c20.1,0,36.5,16.4,36.5,36.5S847,98.4,826.9,98.4c-20.1,0-36.5-16.4-36.5-36.5S806.8,25.5,826.9,25.5
			 M826.9,5.5c-31.2,0-56.5,25.3-56.5,56.5c0,31.2,25.3,56.5,56.5,56.5c31.2,0,56.5-25.3,56.5-56.5C883.4,30.7,858.1,5.5,826.9,5.5
			L826.9,5.5z"/>
	</g>
	<circle class="st4" cx="826.9" cy="61.9" r="24.1"/>
	<g class="st2">
		<circle class="st3" cx="802.7" cy="214.8" r="25.6"/>
		<path d="M802.7,196.7c10,0,18.1,8.1,18.1,18.1s-8.1,18.1-18.1,18.1s-18.1-8.1-18.1-18.1S792.8,196.7,802.7,196.7 M802.7,181.7
			c-18.3,0-33.1,14.8-33.1,33.1c0,18.3,14.8,33.1,33.1,33.1s33.1-14.8,33.1-33.1C835.8,196.5,821,181.7,802.7,181.7L802.7,181.7z"/>
	</g>
	<g class="st2">
		<circle class="st3" cx="959.9" cy="37.8" r="25.6"/>
		<path d="M959.9,19.7c10,0,18.1,8.1,18.1,18.1s-8.1,18.1-18.1,18.1c-10,0-18.1-8.1-18.1-18.1S949.9,19.7,959.9,19.7 M959.9,4.7
			c-18.3,0-33.1,14.8-33.1,33.1c0,18.3,14.8,33.1,33.1,33.1c18.3,0,33.1-14.8,33.1-33.1C993,19.5,978.1,4.7,959.9,4.7L959.9,4.7z"/>
	</g>
</g>
<g id="Слой_2__x28_копия_x29_">
	<g>
		<path class="st5" d="M431.2,134.5l11-69.9c13.3-4.3,22.9-16.8,22.9-31.5C465.1,14.8,450.3,0,432,0c-18.3,0-33.1,14.8-33.1,33.1
			c0,11,5.4,20.8,13.7,26.8l-11,69.9c-6.2,0.7-12,2.4-17.4,4.9l-38.5-45.5c6.2-9.1,9.9-20.1,9.9-31.9c0-31.2-25.3-56.5-56.5-56.5
			S242.5,26,242.5,57.2c0,1.6,0.1,3.1,0.2,4.7l-13.6,5C209,27.8,168.2,1.1,121.3,1.1C54.3,1.1,0,55.4,0,122.4
			s54.3,121.3,121.3,121.3c39.7,0,75-19.1,97.1-48.6l23.5,13.4c0,0.5,0,1.1,0,1.6c0,18.3,14.8,33.1,33.1,33.1
			c18.3,0,33.1-14.8,33.1-33.1c0-11-5.4-20.8-13.7-26.8l11-69.9c6.2-0.7,12-2.4,17.4-4.9l38.5,45.5c-6.2,9.1-9.9,20.1-9.9,31.9
			c0,31.2,25.3,56.5,56.5,56.5s56.5-25.3,56.5-56.5C464.4,163,450.8,143.3,431.2,134.5z M202.5,151.5c-3.4,9.6-8.5,18.4-14.9,26
			c-15.8,19-39.7,31.2-66.3,31.2C73.7,208.7,35,170,35,122.4c0-47.6,38.7-86.3,86.3-86.3c31.8,0,59.6,17.3,74.6,43
			c5,8.6,8.5,18,10.3,28.1c0.9,4.9,1.3,10,1.3,15.2C207.5,132.6,205.8,142.4,202.5,151.5z M233.3,169c6-14.3,9.3-30.1,9.3-46.6
			c0-9.4-1.1-18.6-3.1-27.4l13.6-5c5.8,8,13.6,14.5,22.7,18.6l-11,69.9c-2.8,0.9-5.5,2.2-8,3.8L233.3,169z M274.9,228.2
			c-7.1,0-13.2-4.1-16.2-10.1c-1.2-2.4-1.9-5.1-1.9-8c0-4.7,1.8-9.1,4.8-12.3c3-3.3,7.2-5.4,11.9-5.7c0.4,0,0.9,0,1.3,0
			c7.2,0,13.5,4.3,16.4,10.5v0c1.1,2.3,1.7,4.9,1.7,7.6C293,220,284.9,228.2,274.9,228.2z M332,73c-4.5,9.3-12.8,16.5-22.9,19.4
			c-0.1,0-0.3,0.1-0.4,0.1c-3.1,0.8-6.3,1.3-9.6,1.3c-7.4,0-14.3-2.2-20-6c-2.2-1.4-4.2-3.1-6-5c-6.5-6.6-10.4-15.6-10.4-25.5
			c0-0.9,0-1.8,0.1-2.6c1.4-18.9,17.2-33.8,36.4-33.8c20.1,0,36.5,16.4,36.5,36.5C335.5,62.9,334.2,68.2,332,73z M432,15
			c10,0,18.1,8.1,18.1,18.1c0,4.7-1.8,9.1-4.8,12.3c-3.3,3.5-8,5.8-13.2,5.8c-7.2,0-13.5-4.3-16.4-10.4c-1.1-2.3-1.7-4.9-1.7-7.6
			C413.9,23.1,422,15,432,15z M407.9,222.4c-20.1,0-36.5-16.4-36.5-36.5c0-5.6,1.3-10.9,3.6-15.7c4.5-9.3,12.8-16.5,22.9-19.4
			c0.1,0,0.3-0.1,0.4-0.1c3.1-0.8,6.3-1.3,9.6-1.3c7.4,0,14.3,2.2,20,6c9.9,6.5,16.5,17.8,16.5,30.5
			C444.4,206,428,222.4,407.9,222.4z"/>
	</g>
	<path class="st6" d="M184.8,122.4c0,6.1-0.9,12-2.5,17.6c-2.8,9.9-8,18.8-14.9,26c-11.6,12.3-28,19.9-46.2,19.9
		c-35.1,0-63.5-28.4-63.5-63.5c0-35.1,28.4-63.5,63.5-63.5c22,0,41.4,11.2,52.8,28.2c5.5,8.2,9.2,17.8,10.3,28.2
		C184.6,117.6,184.8,120,184.8,122.4z"/>
	<path class="st6" d="M432,185.9c0,13.3-10.8,24.2-24.1,24.2c-13.3,0-24.2-10.8-24.2-24.2c0-1.6,0.2-3.2,0.5-4.8
		c1.4-7,5.8-12.9,11.8-16.3v0c3.3-1.9,7.1-3,11.1-3.1c0.2,0,0.5,0,0.8,0c7,0,13.4,3,17.8,7.8C429.6,173.9,432,179.6,432,185.9z"/>
	<path class="st7" d="M323.2,57.2c0,1.6-0.2,3.2-0.5,4.8c-1.4,7-5.8,12.9-11.8,16.2v0c-3.3,1.9-7.1,3-11.1,3.1c-0.2,0-0.5,0-0.8,0
		c-4.6,0-8.9-1.3-12.6-3.5c-1.9-1.2-3.7-2.6-5.2-4.3c-4-4.3-6.4-10-6.4-16.3c0-2.6,0.4-5.2,1.2-7.6c3.2-9.6,12.2-16.6,22.9-16.6
		C312.4,33.1,323.2,43.9,323.2,57.2z"/>
</g>
<g id="Слой_1" class="st0">
	
		<image style="display:inline;overflow:visible;" width="289" height="151" xlink:href="ONlogo72.png"  transform="matrix(1.6114 0 0 1.6114 541.3812 -274.8786)">
	</image>
</g>
</svg>
